# xmcd CD database file
#
# Track frame offsets:
#	150
#	36120
#	78386
#	93852
#	147930
#	175996
#	180422
#	215027
#	242430
#	257842
#	269411
#	274400
#	294063
#	308722
#	315611
#
# Disc length: 4380 seconds
#
# Revision: 0
# Processed by: cddbd v1.5.2PL0 Copyright (c) Steve Scherf et al.
# Submitted via: CDex 1.70beta2
#
DISCID=d2111a0f
DTITLE=Clifford Brown - The Complete Quebec Jam Session
DYEAR=1955
DGENRE=Jazz
TTITLE0=All the Things You Are
TTITLE1=Lady Be Good - Hackensack
TTITLE2=Strike Up The Band
TTITLE3=Ow!
TTITLE4=Sippin' at Bells
TTITLE5=Brownie talks
TTITLE6=A Night in Tunisia
TTITLE7=Billie's Bounce
TTITLE8=Fine And Dandy (source 2)
TTITLE9=Gerkin' For Perkin' (source 2)
TTITLE10=Fine And Dandy
TTITLE11=Gerkin' For Perkin'
TTITLE12=It Might As Well Be Spring
TTITLE13=Lady Be Good
TTITLE14=Memories Of You into Interview
EXTD=YEAR: 1955
EXTT0=
EXTT1=
EXTT2=
EXTT3=
EXTT4=
EXTT5=
EXTT6=
EXTT7=
EXTT8=
EXTT9=
EXTT10=
EXTT11=
EXTT12=
EXTT13=
EXTT14=
PLAYORDER=
